<?xml version="1.0" encoding="UTF-8" standalone="no"?>
<!-- Created with Inkscape (http://www.inkscape.org/) -->

<svg
   xmlns:dc="http://purl.org/dc/elements/1.1/"
   xmlns:cc="http://creativecommons.org/ns#"
   xmlns:rdf="http://www.w3.org/1999/02/22-rdf-syntax-ns#"
   xmlns:svg="http://www.w3.org/2000/svg"
   xmlns="http://www.w3.org/2000/svg"
   xmlns:sodipodi="http://sodipodi.sourceforge.net/DTD/sodipodi-0.dtd"
   xmlns:inkscape="http://www.inkscape.org/namespaces/inkscape"
   id="svg2"
   version="1.1"
   inkscape:version="0.91 r13725"
   xml:space="preserve"
   width="303.75"
   height="90"
   viewBox="0 0 303.75 90"
   sodipodi:docname="lattice_hopping.svg"><metadata
     id="metadata8"><rdf:RDF><cc:Work
         rdf:about=""><dc:format>image/svg+xml</dc:format><dc:type
           rdf:resource="http://purl.org/dc/dcmitype/StillImage" /><dc:title></dc:title></cc:Work></rdf:RDF></metadata><defs
     id="defs6" /><sodipodi:namedview
     pagecolor="#ffffff"
     bordercolor="#666666"
     borderopacity="1"
     objecttolerance="10"
     gridtolerance="10"
     guidetolerance="10"
     inkscape:pageopacity="0"
     inkscape:pageshadow="2"
     inkscape:window-width="640"
     inkscape:window-height="480"
     id="namedview4"
     showgrid="false"
     inkscape:zoom="1.1720165"
     inkscape:cx="151.875"
     inkscape:cy="45"
     inkscape:window-x="0"
     inkscape:window-y="0"
     inkscape:window-maximized="0"
     inkscape:current-layer="g10" /><g
     id="g10"
     inkscape:groupmode="layer"
     inkscape:label="lattice_hopping"
     transform="matrix(1.25,0,0,-1.25,0,90)"><text
       transform="matrix(1,0,0,-1,0.635,64.0527)"
       style="font-variant:normal;font-size:9.96259975px;font-family:ORMKKB;-inkscape-font-specification:ORMKKB-CMR10;writing-mode:lr-tb;fill:#000000;fill-opacity:1;fill-rule:nonzero;stroke:none"
       id="text12"><tspan
         x="0 3.8654888 8.8467884 93.265877 97.131363 102.66061 168.65387 172.51935 176.94275"
         y="0"
         sodipodi:role="line"
         id="tspan14">(a)(b)(c)</tspan></text>
<path
       d="m 31.095,33.945 7.086,12.274 -14.173,0 7.087,-12.274 z m 21.259,12.274 14.174,0 -7.087,-12.274 -7.087,12.274 z m 0,-24.548 -7.086,-12.274 -7.087,12.274 14.173,0 z m -28.346,0 14.173,0 -7.086,12.274 -7.087,-12.274 z"
       style="fill:none;stroke:#999999;stroke-width:0.47999999;stroke-linecap:butt;stroke-linejoin:round;stroke-miterlimit:10;stroke-dasharray:none;stroke-opacity:1"
       id="path16"
       inkscape:connector-curvature="0" /><path
       d="m 31.095,25.762 0,16.366 m 0,-16.366 14.173,-8.182 M 31.095,25.762 16.921,17.58"
       style="fill:none;stroke:#000000;stroke-width:0.47999999;stroke-linecap:round;stroke-linejoin:round;stroke-miterlimit:10;stroke-dasharray:none;stroke-opacity:1"
       id="path18"
       inkscape:connector-curvature="0" /><path
       d="m 38.181,46.219 14.173,0 -7.086,12.274 -7.087,-12.274 z"
       style="fill:none;stroke:#999999;stroke-width:0.47999999;stroke-linecap:round;stroke-linejoin:round;stroke-miterlimit:10;stroke-dasharray:none;stroke-opacity:1"
       id="path20"
       inkscape:connector-curvature="0" /><path
       d="m 45.268,50.31 0,16.366 m 0,-16.366 14.173,-8.182 M 45.268,50.31 31.095,42.128"
       style="fill:none;stroke:#000000;stroke-width:0.47999999;stroke-linecap:round;stroke-linejoin:round;stroke-miterlimit:10;stroke-dasharray:none;stroke-opacity:1"
       id="path22"
       inkscape:connector-curvature="0" /><path
       d="m 52.354,21.671 14.174,0 -7.087,12.274 -7.087,-12.274 z"
       style="fill:none;stroke:#999999;stroke-width:0.47999999;stroke-linecap:round;stroke-linejoin:round;stroke-miterlimit:10;stroke-dasharray:none;stroke-opacity:1"
       id="path24"
       inkscape:connector-curvature="0" /><path
       d="m 59.441,25.762 0,16.366 m 0,-16.366 14.173,-8.182 M 59.441,25.762 45.268,17.58 M 31.095,42.128 16.921,50.31"
       style="fill:none;stroke:#000000;stroke-width:0.47999999;stroke-linecap:round;stroke-linejoin:round;stroke-miterlimit:10;stroke-dasharray:none;stroke-opacity:1"
       id="path26"
       inkscape:connector-curvature="0" /><path
       d="m 33.095,25.762 c 0,0.531 -0.211,1.04 -0.586,1.415 -0.375,0.375 -0.884,0.585 -1.414,0.585 -0.531,0 -1.039,-0.21 -1.415,-0.585 -0.375,-0.375 -0.585,-0.884 -0.585,-1.415 0,-0.53 0.21,-1.039 0.585,-1.414 0.376,-0.375 0.884,-0.586 1.415,-0.586 0.53,0 1.039,0.211 1.414,0.586 0.375,0.375 0.586,0.884 0.586,1.414"
       style="fill:#ffffff;fill-opacity:1;fill-rule:nonzero;stroke:none"
       id="path28"
       inkscape:connector-curvature="0" /><path
       d="m 33.095,25.762 c 0,0.531 -0.211,1.04 -0.586,1.415 -0.375,0.375 -0.884,0.585 -1.414,0.585 -0.531,0 -1.039,-0.21 -1.415,-0.585 -0.375,-0.375 -0.585,-0.884 -0.585,-1.415 0,-0.53 0.21,-1.039 0.585,-1.414 0.376,-0.375 0.884,-0.586 1.415,-0.586 0.53,0 1.039,0.211 1.414,0.586 0.375,0.375 0.586,0.884 0.586,1.414 z"
       style="fill:none;stroke:#000000;stroke-width:0.47999999;stroke-linecap:round;stroke-linejoin:round;stroke-miterlimit:10;stroke-dasharray:none;stroke-opacity:1"
       id="path30"
       inkscape:connector-curvature="0" /><path
       d="m 47.268,50.31 c 0,0.531 -0.211,1.04 -0.586,1.415 -0.375,0.375 -0.884,0.585 -1.414,0.585 -0.531,0 -1.039,-0.21 -1.414,-0.585 -0.375,-0.375 -0.586,-0.884 -0.586,-1.415 0,-0.53 0.211,-1.039 0.586,-1.414 0.375,-0.375 0.883,-0.586 1.414,-0.586 0.53,0 1.039,0.211 1.414,0.586 0.375,0.375 0.586,0.884 0.586,1.414"
       style="fill:#ffffff;fill-opacity:1;fill-rule:nonzero;stroke:none"
       id="path32"
       inkscape:connector-curvature="0" /><path
       d="m 47.268,50.31 c 0,0.531 -0.211,1.04 -0.586,1.415 -0.375,0.375 -0.884,0.585 -1.414,0.585 -0.531,0 -1.039,-0.21 -1.414,-0.585 -0.375,-0.375 -0.586,-0.884 -0.586,-1.415 0,-0.53 0.211,-1.039 0.586,-1.414 0.375,-0.375 0.883,-0.586 1.414,-0.586 0.53,0 1.039,0.211 1.414,0.586 0.375,0.375 0.586,0.884 0.586,1.414 z"
       style="fill:none;stroke:#000000;stroke-width:0.47999999;stroke-linecap:round;stroke-linejoin:round;stroke-miterlimit:10;stroke-dasharray:none;stroke-opacity:1"
       id="path34"
       inkscape:connector-curvature="0" /><path
       d="m 61.441,25.762 c 0,0.531 -0.211,1.04 -0.586,1.415 -0.375,0.375 -0.883,0.585 -1.414,0.585 -0.53,0 -1.039,-0.21 -1.414,-0.585 -0.375,-0.375 -0.586,-0.884 -0.586,-1.415 0,-0.53 0.211,-1.039 0.586,-1.414 0.375,-0.375 0.884,-0.586 1.414,-0.586 0.531,0 1.039,0.211 1.414,0.586 0.375,0.375 0.586,0.884 0.586,1.414"
       style="fill:#ffffff;fill-opacity:1;fill-rule:nonzero;stroke:none"
       id="path36"
       inkscape:connector-curvature="0" /><path
       d="m 61.441,25.762 c 0,0.531 -0.211,1.04 -0.586,1.415 -0.375,0.375 -0.883,0.585 -1.414,0.585 -0.53,0 -1.039,-0.21 -1.414,-0.585 -0.375,-0.375 -0.586,-0.884 -0.586,-1.415 0,-0.53 0.211,-1.039 0.586,-1.414 0.375,-0.375 0.884,-0.586 1.414,-0.586 0.531,0 1.039,0.211 1.414,0.586 0.375,0.375 0.586,0.884 0.586,1.414 z"
       style="fill:none;stroke:#000000;stroke-width:0.47999999;stroke-linecap:round;stroke-linejoin:round;stroke-miterlimit:10;stroke-dasharray:none;stroke-opacity:1"
       id="path38"
       inkscape:connector-curvature="0" /><path
       d="m 33.095,42.128 c 0,0.53 -0.211,1.039 -0.586,1.414 -0.375,0.375 -0.884,0.586 -1.414,0.586 -0.531,0 -1.039,-0.211 -1.415,-0.586 -0.375,-0.375 -0.585,-0.884 -0.585,-1.414 0,-0.531 0.21,-1.039 0.585,-1.414 0.376,-0.375 0.884,-0.586 1.415,-0.586 0.53,0 1.039,0.211 1.414,0.586 0.375,0.375 0.586,0.883 0.586,1.414"
       style="fill:#000000;fill-opacity:1;fill-rule:nonzero;stroke:none"
       id="path40"
       inkscape:connector-curvature="0" /><path
       d="m 61.441,42.128 c 0,0.53 -0.211,1.039 -0.586,1.414 -0.375,0.375 -0.883,0.586 -1.414,0.586 -0.53,0 -1.039,-0.211 -1.414,-0.586 -0.375,-0.375 -0.586,-0.884 -0.586,-1.414 0,-0.531 0.211,-1.039 0.586,-1.414 0.375,-0.375 0.884,-0.586 1.414,-0.586 0.531,0 1.039,0.211 1.414,0.586 0.375,0.375 0.586,0.883 0.586,1.414"
       style="fill:#000000;fill-opacity:1;fill-rule:nonzero;stroke:none"
       id="path42"
       inkscape:connector-curvature="0" /><path
       d="m 47.268,17.58 c 0,0.53 -0.211,1.039 -0.586,1.414 -0.375,0.375 -0.884,0.586 -1.414,0.586 -0.531,0 -1.039,-0.211 -1.414,-0.586 -0.375,-0.375 -0.586,-0.884 -0.586,-1.414 0,-0.531 0.211,-1.039 0.586,-1.414 0.375,-0.375 0.883,-0.586 1.414,-0.586 0.53,0 1.039,0.211 1.414,0.586 0.375,0.375 0.586,0.883 0.586,1.414"
       style="fill:#000000;fill-opacity:1;fill-rule:nonzero;stroke:none"
       id="path44"
       inkscape:connector-curvature="0" /><path
       d="m 59.441,42.128 14.173,8.182 m -28.346,-32.73 0,-16.365"
       style="fill:none;stroke:#000000;stroke-width:0.47999999;stroke-linecap:round;stroke-linejoin:round;stroke-miterlimit:10;stroke-dasharray:none;stroke-opacity:1"
       id="path46"
       inkscape:connector-curvature="0" /><text
       transform="matrix(1,0,0,-1,75.1802,44.5939)"
       style="font-style:italic;font-variant:normal;font-size:9.96259975px;font-family:AAAGAV;-inkscape-font-specification:AAAGAV-CMMI10;writing-mode:lr-tb;fill:#000000;fill-opacity:1;fill-rule:nonzero;stroke:none"
       id="text48"><tspan
         x="0"
         y="0"
         id="tspan50">P</tspan></text>
<text
       transform="matrix(1,0,0,-1,81.5762,43.0995)"
       style="font-style:italic;font-variant:normal;font-size:6.97380018px;font-family:FGJGAV;-inkscape-font-specification:FGJGAV-CMMI7;writing-mode:lr-tb;fill:#000000;fill-opacity:1;fill-rule:nonzero;stroke:none"
       id="text52"><tspan
         x="0"
         y="0"
         id="tspan54">d</tspan></text>
<path
       d="m 16.921,17.58 63.78,36.822"
       style="fill:none;stroke:#ed1c24;stroke-width:0.95999998;stroke-linecap:round;stroke-linejoin:round;stroke-miterlimit:10;stroke-dasharray:3, 3;stroke-dashoffset:0;stroke-opacity:1"
       id="path56"
       inkscape:connector-curvature="0" /><text
       transform="matrix(1,0,0,-1,82.1951,24.1373)"
       style="font-style:italic;font-variant:normal;font-size:9.96259975px;font-family:AAAGAV;-inkscape-font-specification:AAAGAV-CMMI10;writing-mode:lr-tb;fill:#000000;fill-opacity:1;fill-rule:nonzero;stroke:none"
       id="text58"><tspan
         x="0"
         y="0"
         id="tspan60">P</tspan></text>
<text
       transform="matrix(1,0,0,-1,88.5912,22.6429)"
       style="font-style:italic;font-variant:normal;font-size:6.97380018px;font-family:FGJGAV;-inkscape-font-specification:FGJGAV-CMMI7;writing-mode:lr-tb;fill:#000000;fill-opacity:1;fill-rule:nonzero;stroke:none"
       id="text62"><tspan
         x="0"
         y="0"
         id="tspan64">y</tspan></text>
<path
       d="m 2.748,33.945 85.04,0"
       style="fill:none;stroke:#ed1c24;stroke-width:0.95999998;stroke-linecap:round;stroke-linejoin:round;stroke-miterlimit:10;stroke-dasharray:3, 3;stroke-dashoffset:0;stroke-opacity:1"
       id="path66"
       inkscape:connector-curvature="0" /><path
       d="m 45.268,33.945 28.346,0"
       style="fill:none;stroke:#2e3192;stroke-width:1.91999996;stroke-linecap:round;stroke-linejoin:round;stroke-miterlimit:10;stroke-dasharray:none;stroke-opacity:1"
       id="path68"
       inkscape:connector-curvature="0" /><path
       d="m 69.919,32.414 3.695,1.531 -3.695,1.531 0,-3.062 z"
       style="fill:#2e3192;fill-opacity:1;fill-rule:nonzero;stroke:#2e3192;stroke-width:1.91999996;stroke-linecap:round;stroke-linejoin:round;stroke-miterlimit:10;stroke-dasharray:none;stroke-opacity:1"
       id="path70"
       inkscape:connector-curvature="0" /><text
       transform="matrix(1,0,0,-1,68.4687,24.1373)"
       style="font-style:italic;font-variant:normal;font-size:9.96259975px;font-family:AAAGAV;-inkscape-font-specification:AAAGAV-CMMI10;writing-mode:lr-tb;fill:#000000;fill-opacity:1;fill-rule:nonzero;stroke:none"
       id="text72"><tspan
         x="0"
         y="0"
         id="tspan74">T</tspan></text>
<text
       transform="matrix(1,0,0,-1,74.2906,22.6429)"
       style="font-variant:normal;font-size:6.97380018px;font-family:LNIJCJ;-inkscape-font-specification:LNIJCJ-CMR7;writing-mode:lr-tb;fill:#000000;fill-opacity:1;fill-rule:nonzero;stroke:none"
       id="text76"><tspan
         x="0"
         y="0"
         id="tspan78">1</tspan></text>
<path
       d="M 45.268,33.945 59.441,58.493"
       style="fill:none;stroke:#2e3192;stroke-width:1.91999996;stroke-linecap:round;stroke-linejoin:round;stroke-miterlimit:10;stroke-dasharray:none;stroke-opacity:1"
       id="path80"
       inkscape:connector-curvature="0" /><path
       d="m 58.919,54.527 0.522,3.966 -3.173,-2.435 2.651,-1.531 z"
       style="fill:#2e3192;fill-opacity:1;fill-rule:nonzero;stroke:#2e3192;stroke-width:1.91999996;stroke-linecap:round;stroke-linejoin:round;stroke-miterlimit:10;stroke-dasharray:none;stroke-opacity:1"
       id="path82"
       inkscape:connector-curvature="0" /><text
       transform="matrix(1,0,0,-1,54.2954,62.9875)"
       style="font-style:italic;font-variant:normal;font-size:9.96259975px;font-family:AAAGAV;-inkscape-font-specification:AAAGAV-CMMI10;writing-mode:lr-tb;fill:#000000;fill-opacity:1;fill-rule:nonzero;stroke:none"
       id="text84"><tspan
         x="0"
         y="0"
         id="tspan86">T</tspan></text>
<text
       transform="matrix(1,0,0,-1,60.1173,61.4931)"
       style="font-variant:normal;font-size:6.97380018px;font-family:LNIJCJ;-inkscape-font-specification:LNIJCJ-CMR7;writing-mode:lr-tb;fill:#000000;fill-opacity:1;fill-rule:nonzero;stroke:none"
       id="text88"><tspan
         x="0"
         y="0"
         id="tspan90">2</tspan></text>
<path
       d="m 124.638,25.762 0,16.366 m 0,-16.366 14.173,-8.182 m -14.173,8.182 -14.173,-8.182 m 28.346,32.73 0,16.366 m 0,-16.366 14.173,-8.182 m -14.173,8.182 -14.173,-8.182 m 28.346,-16.366 0,16.366 m 0,-16.366 14.174,-8.182 m -14.174,8.182 -14.173,-8.182 m -14.173,24.548 -14.173,8.182 m 42.519,-8.182 14.174,8.182 m -28.347,-32.73 0,-16.365"
       style="fill:none;stroke:#000000;stroke-width:0.47999999;stroke-linecap:round;stroke-linejoin:round;stroke-miterlimit:10;stroke-dasharray:none;stroke-opacity:1"
       id="path92"
       inkscape:connector-curvature="0" /><text
       transform="matrix(1,0,0,-1,140.9113,11.052)"
       style="font-variant:normal;font-size:9.96259975px;font-family:IDYDUA;-inkscape-font-specification:IDYDUA-CMSS10;writing-mode:lr-tb;fill:#000000;fill-opacity:1;fill-rule:nonzero;stroke:none"
       id="text94"><tspan
         x="0"
         y="0"
         id="tspan96">r</tspan><tspan
         x="8.9045715"
         y="-4.2211537"
         id="tspan98">r</tspan></text>
<text
       transform="matrix(1,0,0,-1,153.3581,18.8882)"
       style="font-style:italic;font-variant:normal;font-size:6.97380018px;font-family:IXBFTU;-inkscape-font-specification:IXBFTU-CMSY7;writing-mode:lr-tb;fill:#000000;fill-opacity:1;fill-rule:nonzero;stroke:none"
       id="text100"><tspan
         x="0"
         y="0"
         id="tspan102"></tspan></text>
<text
       transform="matrix(1,0,0,-1,148.6673,45.1278)"
       style="font-variant:normal;font-size:9.96259975px;font-family:IDYDUA;-inkscape-font-specification:IDYDUA-CMSS10;writing-mode:lr-tb;fill:#000000;fill-opacity:1;fill-rule:nonzero;stroke:none"
       id="text104"><tspan
         x="0"
         y="0"
         id="tspan106">r</tspan></text>
<text
       transform="matrix(1,0,0,-1,152.2096,48.7432)"
       style="font-style:italic;font-variant:normal;font-size:6.97380018px;font-family:IXBFTU;-inkscape-font-specification:IXBFTU-CMSY7;writing-mode:lr-tb;fill:#000000;fill-opacity:1;fill-rule:nonzero;stroke:none"
       id="text108"><tspan
         x="0 2.2943802"
         y="0"
         sodipodi:role="line"
         id="tspan110"></tspan></text>
<path
       d="m 126.638,25.762 c 0,0.531 -0.211,1.04 -0.586,1.415 -0.375,0.375 -0.884,0.585 -1.414,0.585 -0.53,0 -1.039,-0.21 -1.414,-0.585 -0.375,-0.375 -0.586,-0.884 -0.586,-1.415 0,-0.53 0.211,-1.039 0.586,-1.414 0.375,-0.375 0.884,-0.586 1.414,-0.586 0.53,0 1.039,0.211 1.414,0.586 0.375,0.375 0.586,0.884 0.586,1.414"
       style="fill:#ffffff;fill-opacity:1;fill-rule:nonzero;stroke:none"
       id="path112"
       inkscape:connector-curvature="0" /><path
       d="m 126.638,25.762 c 0,0.531 -0.211,1.04 -0.586,1.415 -0.375,0.375 -0.884,0.585 -1.414,0.585 -0.53,0 -1.039,-0.21 -1.414,-0.585 -0.375,-0.375 -0.586,-0.884 -0.586,-1.415 0,-0.53 0.211,-1.039 0.586,-1.414 0.375,-0.375 0.884,-0.586 1.414,-0.586 0.53,0 1.039,0.211 1.414,0.586 0.375,0.375 0.586,0.884 0.586,1.414 z"
       style="fill:none;stroke:#000000;stroke-width:0.47999999;stroke-linecap:round;stroke-linejoin:round;stroke-miterlimit:10;stroke-dasharray:none;stroke-opacity:1"
       id="path114"
       inkscape:connector-curvature="0" /><path
       d="m 140.811,50.31 c 0,0.531 -0.211,1.04 -0.586,1.415 -0.375,0.375 -0.883,0.585 -1.414,0.585 -0.53,0 -1.039,-0.21 -1.414,-0.585 -0.375,-0.375 -0.586,-0.884 -0.586,-1.415 0,-0.53 0.211,-1.039 0.586,-1.414 0.375,-0.375 0.884,-0.586 1.414,-0.586 0.531,0 1.039,0.211 1.414,0.586 0.375,0.375 0.586,0.884 0.586,1.414"
       style="fill:#ffffff;fill-opacity:1;fill-rule:nonzero;stroke:none"
       id="path116"
       inkscape:connector-curvature="0" /><path
       d="m 140.811,50.31 c 0,0.531 -0.211,1.04 -0.586,1.415 -0.375,0.375 -0.883,0.585 -1.414,0.585 -0.53,0 -1.039,-0.21 -1.414,-0.585 -0.375,-0.375 -0.586,-0.884 -0.586,-1.415 0,-0.53 0.211,-1.039 0.586,-1.414 0.375,-0.375 0.884,-0.586 1.414,-0.586 0.531,0 1.039,0.211 1.414,0.586 0.375,0.375 0.586,0.884 0.586,1.414 z"
       style="fill:none;stroke:#000000;stroke-width:0.47999999;stroke-linecap:round;stroke-linejoin:round;stroke-miterlimit:10;stroke-dasharray:none;stroke-opacity:1"
       id="path118"
       inkscape:connector-curvature="0" /><path
       d="m 154.984,25.762 c 0,0.531 -0.21,1.04 -0.585,1.415 -0.375,0.375 -0.884,0.585 -1.415,0.585 -0.53,0 -1.039,-0.21 -1.414,-0.585 -0.375,-0.375 -0.586,-0.884 -0.586,-1.415 0,-0.53 0.211,-1.039 0.586,-1.414 0.375,-0.375 0.884,-0.586 1.414,-0.586 0.531,0 1.04,0.211 1.415,0.586 0.375,0.375 0.585,0.884 0.585,1.414"
       style="fill:#ffffff;fill-opacity:1;fill-rule:nonzero;stroke:none"
       id="path120"
       inkscape:connector-curvature="0" /><path
       d="m 154.984,25.762 c 0,0.531 -0.21,1.04 -0.585,1.415 -0.375,0.375 -0.884,0.585 -1.415,0.585 -0.53,0 -1.039,-0.21 -1.414,-0.585 -0.375,-0.375 -0.586,-0.884 -0.586,-1.415 0,-0.53 0.211,-1.039 0.586,-1.414 0.375,-0.375 0.884,-0.586 1.414,-0.586 0.531,0 1.04,0.211 1.415,0.586 0.375,0.375 0.585,0.884 0.585,1.414 z"
       style="fill:none;stroke:#000000;stroke-width:0.47999999;stroke-linecap:round;stroke-linejoin:round;stroke-miterlimit:10;stroke-dasharray:none;stroke-opacity:1"
       id="path122"
       inkscape:connector-curvature="0" /><path
       d="m 126.638,42.128 c 0,0.53 -0.211,1.039 -0.586,1.414 -0.375,0.375 -0.884,0.586 -1.414,0.586 -0.53,0 -1.039,-0.211 -1.414,-0.586 -0.375,-0.375 -0.586,-0.884 -0.586,-1.414 0,-0.531 0.211,-1.039 0.586,-1.414 0.375,-0.375 0.884,-0.586 1.414,-0.586 0.53,0 1.039,0.211 1.414,0.586 0.375,0.375 0.586,0.883 0.586,1.414"
       style="fill:#000000;fill-opacity:1;fill-rule:nonzero;stroke:none"
       id="path124"
       inkscape:connector-curvature="0" /><path
       d="m 154.984,42.128 c 0,0.53 -0.21,1.039 -0.585,1.414 -0.375,0.375 -0.884,0.586 -1.415,0.586 -0.53,0 -1.039,-0.211 -1.414,-0.586 -0.375,-0.375 -0.586,-0.884 -0.586,-1.414 0,-0.531 0.211,-1.039 0.586,-1.414 0.375,-0.375 0.884,-0.586 1.414,-0.586 0.531,0 1.04,0.211 1.415,0.586 0.375,0.375 0.585,0.883 0.585,1.414"
       style="fill:#000000;fill-opacity:1;fill-rule:nonzero;stroke:none"
       id="path126"
       inkscape:connector-curvature="0" /><path
       d="m 140.811,17.58 c 0,0.53 -0.211,1.039 -0.586,1.414 -0.375,0.375 -0.883,0.586 -1.414,0.586 -0.53,0 -1.039,-0.211 -1.414,-0.586 -0.375,-0.375 -0.586,-0.884 -0.586,-1.414 0,-0.531 0.211,-1.039 0.586,-1.414 0.375,-0.375 0.884,-0.586 1.414,-0.586 0.531,0 1.039,0.211 1.414,0.586 0.375,0.375 0.586,0.883 0.586,1.414"
       style="fill:#000000;fill-opacity:1;fill-rule:nonzero;stroke:none"
       id="path128"
       inkscape:connector-curvature="0" /><path
       d="m 199.473,25.762 0,16.366 m 0,-16.366 14.173,-8.182 m -14.173,8.182 -14.174,-8.182 m 28.347,32.73 0,16.366 m 0,-16.366 14.173,-8.182 m -14.173,8.182 -14.173,-8.182 m 28.346,-16.366 0,16.366 m 0,-16.366 14.173,-8.182 m -14.173,8.182 -14.173,-8.182 m -14.173,24.548 -14.174,8.182 m 42.52,-8.182 14.173,8.182 m -28.346,-32.73 0,-16.365"
       style="fill:none;stroke:#000000;stroke-width:0.47999999;stroke-linecap:round;stroke-linejoin:round;stroke-miterlimit:10;stroke-dasharray:none;stroke-opacity:1"
       id="path130"
       inkscape:connector-curvature="0" /><text
       transform="matrix(1,0,0,-1,215.7459,11.052)"
       style="font-variant:normal;font-size:9.96259975px;font-family:IDYDUA;-inkscape-font-specification:IDYDUA-CMSS10;writing-mode:lr-tb;fill:#000000;fill-opacity:1;fill-rule:nonzero;stroke:none"
       id="text132"><tspan
         x="0"
         y="0"
         id="tspan134">r</tspan><tspan
         x="8.9045715"
         y="-4.2211537"
         id="tspan136">r</tspan></text>
<text
       transform="matrix(1,0,0,-1,228.1927,18.8882)"
       style="font-style:italic;font-variant:normal;font-size:6.97380018px;font-family:IXBFTU;-inkscape-font-specification:IXBFTU-CMSY7;writing-mode:lr-tb;fill:#000000;fill-opacity:1;fill-rule:nonzero;stroke:none"
       id="text138"><tspan
         x="0"
         y="0"
         id="tspan140"></tspan></text>
<text
       transform="matrix(1,0,0,-1,223.5019,45.1278)"
       style="font-variant:normal;font-size:9.96259975px;font-family:IDYDUA;-inkscape-font-specification:IDYDUA-CMSS10;writing-mode:lr-tb;fill:#000000;fill-opacity:1;fill-rule:nonzero;stroke:none"
       id="text142"><tspan
         x="0"
         y="0"
         id="tspan144">r</tspan></text>
<text
       transform="matrix(1,0,0,-1,227.0442,48.7432)"
       style="font-style:italic;font-variant:normal;font-size:6.97380018px;font-family:IXBFTU;-inkscape-font-specification:IXBFTU-CMSY7;writing-mode:lr-tb;fill:#000000;fill-opacity:1;fill-rule:nonzero;stroke:none"
       id="text146"><tspan
         x="0 2.2943802"
         y="0"
         sodipodi:role="line"
         id="tspan148"></tspan></text>
<path
       d="m 201.473,25.762 c 0,0.531 -0.211,1.04 -0.586,1.415 -0.375,0.375 -0.884,0.585 -1.414,0.585 -0.531,0 -1.039,-0.21 -1.415,-0.585 -0.375,-0.375 -0.585,-0.884 -0.585,-1.415 0,-0.53 0.21,-1.039 0.585,-1.414 0.376,-0.375 0.884,-0.586 1.415,-0.586 0.53,0 1.039,0.211 1.414,0.586 0.375,0.375 0.586,0.884 0.586,1.414"
       style="fill:#ffffff;fill-opacity:1;fill-rule:nonzero;stroke:none"
       id="path150"
       inkscape:connector-curvature="0" /><path
       d="m 201.473,25.762 c 0,0.531 -0.211,1.04 -0.586,1.415 -0.375,0.375 -0.884,0.585 -1.414,0.585 -0.531,0 -1.039,-0.21 -1.415,-0.585 -0.375,-0.375 -0.585,-0.884 -0.585,-1.415 0,-0.53 0.21,-1.039 0.585,-1.414 0.376,-0.375 0.884,-0.586 1.415,-0.586 0.53,0 1.039,0.211 1.414,0.586 0.375,0.375 0.586,0.884 0.586,1.414 z"
       style="fill:none;stroke:#000000;stroke-width:0.47999999;stroke-linecap:round;stroke-linejoin:round;stroke-miterlimit:10;stroke-dasharray:none;stroke-opacity:1"
       id="path152"
       inkscape:connector-curvature="0" /><path
       d="m 215.646,50.31 c 0,0.531 -0.211,1.04 -0.586,1.415 -0.375,0.375 -0.884,0.585 -1.414,0.585 -0.531,0 -1.039,-0.21 -1.414,-0.585 -0.375,-0.375 -0.586,-0.884 -0.586,-1.415 0,-0.53 0.211,-1.039 0.586,-1.414 0.375,-0.375 0.883,-0.586 1.414,-0.586 0.53,0 1.039,0.211 1.414,0.586 0.375,0.375 0.586,0.884 0.586,1.414"
       style="fill:#ffffff;fill-opacity:1;fill-rule:nonzero;stroke:none"
       id="path154"
       inkscape:connector-curvature="0" /><path
       d="m 215.646,50.31 c 0,0.531 -0.211,1.04 -0.586,1.415 -0.375,0.375 -0.884,0.585 -1.414,0.585 -0.531,0 -1.039,-0.21 -1.414,-0.585 -0.375,-0.375 -0.586,-0.884 -0.586,-1.415 0,-0.53 0.211,-1.039 0.586,-1.414 0.375,-0.375 0.883,-0.586 1.414,-0.586 0.53,0 1.039,0.211 1.414,0.586 0.375,0.375 0.586,0.884 0.586,1.414 z"
       style="fill:none;stroke:#000000;stroke-width:0.47999999;stroke-linecap:round;stroke-linejoin:round;stroke-miterlimit:10;stroke-dasharray:none;stroke-opacity:1"
       id="path156"
       inkscape:connector-curvature="0" /><path
       d="m 229.819,25.762 c 0,0.531 -0.211,1.04 -0.586,1.415 -0.375,0.375 -0.883,0.585 -1.414,0.585 -0.53,0 -1.039,-0.21 -1.414,-0.585 -0.375,-0.375 -0.586,-0.884 -0.586,-1.415 0,-0.53 0.211,-1.039 0.586,-1.414 0.375,-0.375 0.884,-0.586 1.414,-0.586 0.531,0 1.039,0.211 1.414,0.586 0.375,0.375 0.586,0.884 0.586,1.414"
       style="fill:#ffffff;fill-opacity:1;fill-rule:nonzero;stroke:none"
       id="path158"
       inkscape:connector-curvature="0" /><path
       d="m 229.819,25.762 c 0,0.531 -0.211,1.04 -0.586,1.415 -0.375,0.375 -0.883,0.585 -1.414,0.585 -0.53,0 -1.039,-0.21 -1.414,-0.585 -0.375,-0.375 -0.586,-0.884 -0.586,-1.415 0,-0.53 0.211,-1.039 0.586,-1.414 0.375,-0.375 0.884,-0.586 1.414,-0.586 0.531,0 1.039,0.211 1.414,0.586 0.375,0.375 0.586,0.884 0.586,1.414 z"
       style="fill:none;stroke:#000000;stroke-width:0.47999999;stroke-linecap:round;stroke-linejoin:round;stroke-miterlimit:10;stroke-dasharray:none;stroke-opacity:1"
       id="path160"
       inkscape:connector-curvature="0" /><path
       d="m 201.473,42.128 c 0,0.53 -0.211,1.039 -0.586,1.414 -0.375,0.375 -0.884,0.586 -1.414,0.586 -0.531,0 -1.039,-0.211 -1.415,-0.586 -0.375,-0.375 -0.585,-0.884 -0.585,-1.414 0,-0.531 0.21,-1.039 0.585,-1.414 0.376,-0.375 0.884,-0.586 1.415,-0.586 0.53,0 1.039,0.211 1.414,0.586 0.375,0.375 0.586,0.883 0.586,1.414"
       style="fill:#000000;fill-opacity:1;fill-rule:nonzero;stroke:none"
       id="path162"
       inkscape:connector-curvature="0" /><path
       d="m 229.819,42.128 c 0,0.53 -0.211,1.039 -0.586,1.414 -0.375,0.375 -0.883,0.586 -1.414,0.586 -0.53,0 -1.039,-0.211 -1.414,-0.586 -0.375,-0.375 -0.586,-0.884 -0.586,-1.414 0,-0.531 0.211,-1.039 0.586,-1.414 0.375,-0.375 0.884,-0.586 1.414,-0.586 0.531,0 1.039,0.211 1.414,0.586 0.375,0.375 0.586,0.883 0.586,1.414"
       style="fill:#000000;fill-opacity:1;fill-rule:nonzero;stroke:none"
       id="path164"
       inkscape:connector-curvature="0" /><path
       d="m 215.646,17.58 c 0,0.53 -0.211,1.039 -0.586,1.414 -0.375,0.375 -0.884,0.586 -1.414,0.586 -0.531,0 -1.039,-0.211 -1.414,-0.586 -0.375,-0.375 -0.586,-0.884 -0.586,-1.414 0,-0.531 0.211,-1.039 0.586,-1.414 0.375,-0.375 0.883,-0.586 1.414,-0.586 0.53,0 1.039,0.211 1.414,0.586 0.375,0.375 0.586,0.883 0.586,1.414"
       style="fill:#000000;fill-opacity:1;fill-rule:nonzero;stroke:none"
       id="path166"
       inkscape:connector-curvature="0" /><path
       d="m 152.984,25.762 c -2.937,0 -5.955,-0.165 -8.503,-1.636 -2.549,-1.471 -4.201,-4.002 -5.67,-6.546"
       style="fill:none;stroke:#ed1c24;stroke-width:0.95999998;stroke-linecap:round;stroke-linejoin:round;stroke-miterlimit:10;stroke-dasharray:none;stroke-opacity:1"
       id="path168"
       inkscape:connector-curvature="0" /><path
       d="m 139.539,21.513 c -0.344,-1.28 -0.554,-2.612 -0.728,-3.933 1.057,0.811 2.148,1.605 3.296,2.266 l -2.568,1.667 z"
       style="fill:#ed1c24;fill-opacity:1;fill-rule:nonzero;stroke:#ed1c24;stroke-width:0.95999998;stroke-linecap:round;stroke-linejoin:round;stroke-miterlimit:10;stroke-dasharray:none;stroke-opacity:1"
       id="path170"
       inkscape:connector-curvature="0" /><path
       d="m 152.984,42.128 c -1.469,-2.544 -2.834,-5.24 -2.834,-8.183 0,-2.943 1.365,-5.638 2.834,-8.182"
       style="fill:none;stroke:#ed1c24;stroke-width:0.95999998;stroke-linecap:round;stroke-linejoin:round;stroke-miterlimit:10;stroke-dasharray:none;stroke-opacity:1"
       id="path172"
       inkscape:connector-curvature="0" /><path
       d="m 149.942,28.359 c 0.936,-0.938 1.985,-1.786 3.042,-2.596 -0.174,1.32 -0.316,2.662 -0.315,3.987 l -2.727,-1.391 z"
       style="fill:#ed1c24;fill-opacity:1;fill-rule:nonzero;stroke:#ed1c24;stroke-width:0.95999998;stroke-linecap:round;stroke-linejoin:round;stroke-miterlimit:10;stroke-dasharray:none;stroke-opacity:1"
       id="path174"
       inkscape:connector-curvature="0" /><text
       transform="matrix(1,0,0,-1,137.7353,31.2884)"
       style="font-style:italic;font-variant:normal;font-size:9.96259975px;font-family:AAAGAV;-inkscape-font-specification:AAAGAV-CMMI10;writing-mode:lr-tb;fill:#000000;fill-opacity:1;fill-rule:nonzero;stroke:none"
       id="text176"><tspan
         x="0"
         y="0"
         id="tspan178">J</tspan></text>
<text
       transform="matrix(1,0,0,-1,143.2597,29.794)"
       style="font-style:italic;font-variant:normal;font-size:6.97380018px;font-family:IXBFTU;-inkscape-font-specification:IXBFTU-CMSY7;writing-mode:lr-tb;fill:#000000;fill-opacity:1;fill-rule:nonzero;stroke:none"
       id="text180"><tspan
         x="0"
         y="0"
         id="tspan182">⊥</tspan></text>
<path
       d="m 213.646,17.58 c 2.938,0 5.955,0.165 8.504,1.636 2.548,1.472 4.2,4.002 5.669,6.546"
       style="fill:none;stroke:#00a650;stroke-width:0.95999998;stroke-linecap:round;stroke-linejoin:round;stroke-miterlimit:10;stroke-dasharray:none;stroke-opacity:1"
       id="path184"
       inkscape:connector-curvature="0" /><path
       d="m 227.091,21.829 c 0.344,1.28 0.554,2.613 0.728,3.933 -1.057,-0.811 -2.147,-1.605 -3.296,-2.266 l 2.568,-1.667 z"
       style="fill:#00a650;fill-opacity:1;fill-rule:nonzero;stroke:#00a650;stroke-width:0.95999998;stroke-linecap:round;stroke-linejoin:round;stroke-miterlimit:10;stroke-dasharray:none;stroke-opacity:1"
       id="path186"
       inkscape:connector-curvature="0" /><path
       d="m 227.819,42.128 c 1.469,-2.544 2.834,-5.24 2.834,-8.183 0,-2.468 -0.893,-4.819 -2.126,-6.955"
       style="fill:none;stroke:#00a650;stroke-width:0.95999998;stroke-linecap:round;stroke-linejoin:round;stroke-miterlimit:10;stroke-dasharray:none;stroke-opacity:1"
       id="path188"
       inkscape:connector-curvature="0" /><path
       d="m 228.625,30.989 c 0.135,-1.321 0.077,-2.67 -0.098,-3.999 1.064,0.816 2.058,1.729 2.897,2.759 l -2.799,1.24 z"
       style="fill:#00a650;fill-opacity:1;fill-rule:nonzero;stroke:#00a650;stroke-width:0.95999998;stroke-linecap:round;stroke-linejoin:round;stroke-miterlimit:10;stroke-dasharray:none;stroke-opacity:1"
       id="path190"
       inkscape:connector-curvature="0" /><text
       transform="matrix(1,0,0,-1,230.8191,31.2884)"
       style="font-style:italic;font-variant:normal;font-size:9.96259975px;font-family:AAAGAV;-inkscape-font-specification:AAAGAV-CMMI10;writing-mode:lr-tb;fill:#000000;fill-opacity:1;fill-rule:nonzero;stroke:none"
       id="text192"><tspan
         x="0"
         y="0"
         id="tspan194">J</tspan></text>
<text
       transform="matrix(1,0,0,-1,236.3435,29.794)"
       style="font-style:italic;font-variant:normal;font-size:6.97380018px;font-family:FGJGAV;-inkscape-font-specification:FGJGAV-CMMI7;writing-mode:lr-tb;fill:#000000;fill-opacity:1;fill-rule:nonzero;stroke:none"
       id="text196"><tspan
         x="0"
         y="0"
         id="tspan198">a</tspan></text>
</g></svg>