<?xml version="1.0" encoding="UTF-8" standalone="no"?>
<!-- Created with Inkscape (http://www.inkscape.org/) -->

<svg
   xmlns:dc="http://purl.org/dc/elements/1.1/"
   xmlns:cc="http://creativecommons.org/ns#"
   xmlns:rdf="http://www.w3.org/1999/02/22-rdf-syntax-ns#"
   xmlns:svg="http://www.w3.org/2000/svg"
   xmlns="http://www.w3.org/2000/svg"
   xmlns:sodipodi="http://sodipodi.sourceforge.net/DTD/sodipodi-0.dtd"
   xmlns:inkscape="http://www.inkscape.org/namespaces/inkscape"
   id="svg2"
   version="1.1"
   inkscape:version="0.91 r13725"
   xml:space="preserve"
   width="143.75"
   height="123.75"
   viewBox="0 0 143.75 123.75"
   sodipodi:docname="perp_a.svg"><metadata
     id="metadata8"><rdf:RDF><cc:Work
         rdf:about=""><dc:format>image/svg+xml</dc:format><dc:type
           rdf:resource="http://purl.org/dc/dcmitype/StillImage" /><dc:title></dc:title></cc:Work></rdf:RDF></metadata><defs
     id="defs6" /><sodipodi:namedview
     pagecolor="#ffffff"
     bordercolor="#666666"
     borderopacity="1"
     objecttolerance="10"
     gridtolerance="10"
     guidetolerance="10"
     inkscape:pageopacity="0"
     inkscape:pageshadow="2"
     inkscape:window-width="640"
     inkscape:window-height="480"
     id="namedview4"
     showgrid="false"
     inkscape:zoom="1.9070707"
     inkscape:cx="71.875"
     inkscape:cy="61.875"
     inkscape:window-x="0"
     inkscape:window-y="0"
     inkscape:window-maximized="0"
     inkscape:current-layer="g10" /><g
     id="g10"
     inkscape:groupmode="layer"
     inkscape:label="perp_a"
     transform="matrix(1.25,0,0,-1.25,0,123.75)"><path
       d="m 57.22,66.019 -14.173,-24.548 28.346,0 -14.173,24.548 z m 14.173,24.548 -28.346,0 14.173,-24.548 14.173,24.548 z"
       style="fill:none;stroke:#999999;stroke-width:0.47999999;stroke-linecap:butt;stroke-linejoin:round;stroke-miterlimit:10;stroke-dasharray:none;stroke-opacity:1"
       id="path12"
       inkscape:connector-curvature="0" /><path
       d="m 57.22,82.384 0,-32.73 m 0,32.73 -28.346,16.365 M 57.22,82.384 85.567,98.749"
       style="fill:none;stroke:#000000;stroke-width:0.47999999;stroke-linecap:round;stroke-linejoin:round;stroke-miterlimit:10;stroke-dasharray:none;stroke-opacity:1"
       id="path14"
       inkscape:connector-curvature="0" /><path
       d="m 43.047,41.471 -28.346,0 14.173,-24.548 14.173,24.548 z"
       style="fill:none;stroke:#999999;stroke-width:0.47999999;stroke-linecap:round;stroke-linejoin:round;stroke-miterlimit:10;stroke-dasharray:none;stroke-opacity:1"
       id="path16"
       inkscape:connector-curvature="0" /><path
       d="m 28.874,33.288 0,-32.73 m 0,32.73 L 0.527,49.654 M 28.874,33.288 57.22,49.654"
       style="fill:none;stroke:#000000;stroke-width:0.47999999;stroke-linecap:round;stroke-linejoin:round;stroke-miterlimit:10;stroke-dasharray:none;stroke-opacity:1"
       id="path18"
       inkscape:connector-curvature="0" /><path
       d="m 99.74,41.471 -28.347,0 14.174,-24.548 14.173,24.548 z"
       style="fill:none;stroke:#999999;stroke-width:0.47999999;stroke-linecap:round;stroke-linejoin:round;stroke-miterlimit:10;stroke-dasharray:none;stroke-opacity:1"
       id="path20"
       inkscape:connector-curvature="0" /><path
       d="m 85.567,33.288 0,-32.73 m 0,32.73 -28.347,16.366 m 28.347,-16.366 28.346,16.366"
       style="fill:none;stroke:#000000;stroke-width:0.47999999;stroke-linecap:round;stroke-linejoin:round;stroke-miterlimit:10;stroke-dasharray:none;stroke-opacity:1"
       id="path22"
       inkscape:connector-curvature="0" /><path
       d="m 59.22,49.654 c 0,0.53 -0.211,1.039 -0.586,1.414 -0.375,0.375 -0.883,0.586 -1.414,0.586 -0.53,0 -1.039,-0.211 -1.414,-0.586 -0.375,-0.375 -0.586,-0.884 -0.586,-1.414 0,-0.531 0.211,-1.04 0.586,-1.415 0.375,-0.375 0.884,-0.585 1.414,-0.585 0.531,0 1.039,0.21 1.414,0.585 0.375,0.375 0.586,0.884 0.586,1.415"
       style="fill:#ffffff;fill-opacity:1;fill-rule:nonzero;stroke:none"
       id="path24"
       inkscape:connector-curvature="0" /><path
       d="m 59.22,49.654 c 0,0.53 -0.211,1.039 -0.586,1.414 -0.375,0.375 -0.883,0.586 -1.414,0.586 -0.53,0 -1.039,-0.211 -1.414,-0.586 -0.375,-0.375 -0.586,-0.884 -0.586,-1.414 0,-0.531 0.211,-1.04 0.586,-1.415 0.375,-0.375 0.884,-0.585 1.414,-0.585 0.531,0 1.039,0.21 1.414,0.585 0.375,0.375 0.586,0.884 0.586,1.415 z"
       style="fill:none;stroke:#000000;stroke-width:0.47999999;stroke-linecap:round;stroke-linejoin:round;stroke-miterlimit:10;stroke-dasharray:none;stroke-opacity:1"
       id="path26"
       inkscape:connector-curvature="0" /><path
       d="m 30.874,33.288 c 0,0.531 -0.211,1.039 -0.586,1.414 -0.375,0.375 -0.884,0.586 -1.414,0.586 -0.531,0 -1.039,-0.211 -1.414,-0.586 -0.375,-0.375 -0.586,-0.883 -0.586,-1.414 0,-0.53 0.211,-1.039 0.586,-1.414 0.375,-0.375 0.883,-0.586 1.414,-0.586 0.53,0 1.039,0.211 1.414,0.586 0.375,0.375 0.586,0.884 0.586,1.414"
       style="fill:#000000;fill-opacity:1;fill-rule:nonzero;stroke:none"
       id="path28"
       inkscape:connector-curvature="0" /><text
       transform="matrix(1,0,0,-1,27.1026,36.2883)"
       style="font-variant:normal;font-size:9.96259975px;font-family:SVPPQZ;-inkscape-font-specification:SVPPQZ-CMSS10;writing-mode:lr-tb;fill:#000000;fill-opacity:1;fill-rule:nonzero;stroke:none"
       id="text30"><tspan
         x="0"
         y="0"
         id="tspan32">r</tspan></text>
<path
       d="m 59.22,82.384 c 0,0.531 -0.211,1.039 -0.586,1.414 -0.375,0.375 -0.883,0.586 -1.414,0.586 -0.53,0 -1.039,-0.211 -1.414,-0.586 -0.375,-0.375 -0.586,-0.883 -0.586,-1.414 0,-0.53 0.211,-1.039 0.586,-1.414 0.375,-0.375 0.884,-0.586 1.414,-0.586 0.531,0 1.039,0.211 1.414,0.586 0.375,0.375 0.586,0.884 0.586,1.414"
       style="fill:#000000;fill-opacity:1;fill-rule:nonzero;stroke:none"
       id="path34"
       inkscape:connector-curvature="0" /><text
       transform="matrix(1,0,0,-1,52.9031,85.3842)"
       style="font-variant:normal;font-size:9.96259975px;font-family:SVPPQZ;-inkscape-font-specification:SVPPQZ-CMSS10;writing-mode:lr-tb;fill:#000000;fill-opacity:1;fill-rule:nonzero;stroke:none"
       id="text36"><tspan
         x="0"
         y="0"
         id="tspan38">r</tspan></text>
<text
       transform="matrix(1,0,0,-1,56.4453,88.9996)"
       style="font-style:italic;font-variant:normal;font-size:6.97380018px;font-family:TOCEMT;-inkscape-font-specification:TOCEMT-CMSY7;writing-mode:lr-tb;fill:#000000;fill-opacity:1;fill-rule:nonzero;stroke:none"
       id="text40"><tspan
         x="0 2.2943802"
         y="0"
         sodipodi:role="line"
         id="tspan42"></tspan></text>
<path
       d="m 57.22,49.654 c 2.852,-4.939 7.324,-8.648 12.26,-11.497 4.936,-2.85 10.384,-4.869 16.087,-4.869"
       style="fill:none;stroke:#ed1c24;stroke-width:0.47999999;stroke-linecap:round;stroke-linejoin:round;stroke-miterlimit:10;stroke-dasharray:3, 3;stroke-dashoffset:0;stroke-opacity:1"
       id="path44"
       inkscape:connector-curvature="0" /><path
       d="m 81.76,32.059 c 1.293,0.309 2.565,0.715 3.807,1.229 -1.242,0.515 -2.428,1.127 -3.561,1.823 L 81.76,32.059 Z"
       style="fill:#ed1c24;fill-opacity:1;fill-rule:nonzero;stroke:#ed1c24;stroke-width:0.47999999;stroke-linecap:round;stroke-linejoin:round;stroke-miterlimit:10;stroke-dasharray:none;stroke-opacity:1"
       id="path46"
       inkscape:connector-curvature="0" /><path
       d="M 57.22,49.654 C 54.369,44.715 49.896,41.006 44.961,38.157 40.025,35.307 34.577,33.288 28.874,33.288"
       style="fill:none;stroke:#ed1c24;stroke-width:0.47999999;stroke-linecap:round;stroke-linejoin:round;stroke-miterlimit:10;stroke-dasharray:3, 3;stroke-dashoffset:0;stroke-opacity:1"
       id="path48"
       inkscape:connector-curvature="0" /><path
       d="m 32.435,35.111 c -1.133,-0.696 -2.319,-1.308 -3.561,-1.823 1.242,-0.514 2.514,-0.92 3.806,-1.229 l -0.245,3.052 z"
       style="fill:#ed1c24;fill-opacity:1;fill-rule:nonzero;stroke:#ed1c24;stroke-width:0.47999999;stroke-linecap:round;stroke-linejoin:round;stroke-miterlimit:10;stroke-dasharray:none;stroke-opacity:1"
       id="path50"
       inkscape:connector-curvature="0" /><path
       d="m 57.22,82.384 c 2.852,-4.938 3.827,-10.666 3.827,-16.365 0,-4.962 -0.193,-10.072 -2.679,-14.377"
       style="fill:none;stroke:#ed1c24;stroke-width:0.47999999;stroke-linecap:round;stroke-linejoin:round;stroke-miterlimit:10;stroke-dasharray:3, 3;stroke-dashoffset:0;stroke-opacity:1"
       id="path52"
       inkscape:connector-curvature="0" /><path
       d="m 58.405,55.642 c 0.137,-1.322 0.14,-2.656 -0.037,-4 1.075,0.825 2.016,1.771 2.854,2.803 l -2.817,1.197 z"
       style="fill:#ed1c24;fill-opacity:1;fill-rule:nonzero;stroke:#ed1c24;stroke-width:0.47999999;stroke-linecap:round;stroke-linejoin:round;stroke-miterlimit:10;stroke-dasharray:none;stroke-opacity:1"
       id="path54"
       inkscape:connector-curvature="0" /><path
       d="m 85.567,33.288 c -2.852,4.939 -7.325,8.648 -12.26,11.497 -4.297,2.481 -8.819,4.869 -13.791,4.869"
       style="fill:none;stroke:#ed1c24;stroke-width:0.47999999;stroke-linecap:round;stroke-linejoin:round;stroke-miterlimit:10;stroke-dasharray:3, 3;stroke-dashoffset:0;stroke-opacity:1"
       id="path56"
       inkscape:connector-curvature="0" /><path
       d="m 63.37,50.724 c -1.312,-0.21 -2.602,-0.552 -3.854,-1.07 1.252,-0.519 2.406,-1.189 3.482,-1.969 l 0.372,3.039 z"
       style="fill:#ed1c24;fill-opacity:1;fill-rule:nonzero;stroke:#ed1c24;stroke-width:0.47999999;stroke-linecap:round;stroke-linejoin:round;stroke-miterlimit:10;stroke-dasharray:none;stroke-opacity:1"
       id="path58"
       inkscape:connector-curvature="0" /><path
       d="m 57.22,82.384 c -2.851,-4.938 -3.827,-10.666 -3.827,-16.365 0,-4.962 0.194,-10.072 2.679,-14.377"
       style="fill:none;stroke:#00a650;stroke-width:0.47999999;stroke-linecap:round;stroke-linejoin:round;stroke-miterlimit:10;stroke-dasharray:none;stroke-opacity:1"
       id="path60"
       inkscape:connector-curvature="0" /><path
       d="m 53.218,54.445 c 0.838,-1.032 1.779,-1.978 2.854,-2.803 -0.177,1.344 -0.173,2.678 -0.036,4 l -2.818,-1.197 z"
       style="fill:#00a650;fill-opacity:1;fill-rule:nonzero;stroke:#00a650;stroke-width:0.47999999;stroke-linecap:round;stroke-linejoin:round;stroke-miterlimit:10;stroke-dasharray:none;stroke-opacity:1"
       id="path62"
       inkscape:connector-curvature="0" /><path
       d="m 28.874,33.288 c 2.851,4.939 7.324,8.648 12.259,11.497 4.298,2.481 8.82,4.869 13.791,4.869"
       style="fill:none;stroke:#00a650;stroke-width:0.47999999;stroke-linecap:round;stroke-linejoin:round;stroke-miterlimit:10;stroke-dasharray:none;stroke-opacity:1"
       id="path64"
       inkscape:connector-curvature="0" /><path
       d="m 51.442,47.685 c 1.077,0.78 2.23,1.45 3.482,1.969 -1.252,0.518 -2.541,0.86 -3.854,1.07 l 0.372,-3.039 z"
       style="fill:#00a650;fill-opacity:1;fill-rule:nonzero;stroke:#00a650;stroke-width:0.47999999;stroke-linecap:round;stroke-linejoin:round;stroke-miterlimit:10;stroke-dasharray:none;stroke-opacity:1"
       id="path66"
       inkscape:connector-curvature="0" /><text
       transform="matrix(1,0,0,-1,64.8549,51.7535)"
       style="font-variant:normal;font-size:9.96259975px;font-family:SVPPQZ;-inkscape-font-specification:SVPPQZ-CMSS10;writing-mode:lr-tb;fill:#000000;fill-opacity:1;fill-rule:nonzero;stroke:none"
       id="text68"><tspan
         x="0"
         y="0"
         id="tspan70">r</tspan></text>
<text
       transform="matrix(1,0,0,-1,68.3971,55.3689)"
       style="font-style:italic;font-variant:normal;font-size:6.97380018px;font-family:TOCEMT;-inkscape-font-specification:TOCEMT-CMSY7;writing-mode:lr-tb;fill:#000000;fill-opacity:1;fill-rule:nonzero;stroke:none"
       id="text72"><tspan
         x="0"
         y="0"
         id="tspan74"></tspan></text>
</g></svg>